<svg 
  version="1.1" 
  baseProfile="tiny" 
  xmlns="http://www.w3.org/2000/svg" 
  xmlns:xlink="http://www.w3.org/1999/xlink" 
  x="0px" 
  y="0px" 
  viewBox="0 0 370.582 48.299" 
  xml:space="preserve">
<g>
	<path fill="#2f3033" d="M360.448,29.818c6.898-1.806,10.068-6.47,10.068-14.142v-0.133c0-4.069-1.432-7.538-3.958-10.073
		c-3.07-2.936-7.778-4.67-13.78-4.67h-20.011v7.471h19.328c6.21,0,9.892,2.736,9.892,7.739v0.134c0,4.736-3.819,7.807-9.824,7.807
		l-5.245,0.017l14.002,23.528h9.662L360.448,29.818z M32.633,20.214H9.846V0.801H1.453v46.695h8.393V27.818h22.787v19.677h8.392
		V0.801h-8.392V20.214z M77.627,0C62.96,0,52.588,11.007,52.588,24.148v0.135c0,13.14,10.234,24.016,24.903,24.016
		c14.668,0,25.039-11.01,25.039-24.151v-0.133C102.53,10.874,92.295,0,77.627,0z M93.729,24.284c0,9.072-6.618,16.475-16.102,16.475
		c-9.483,0-16.237-7.54-16.237-16.611v-0.133c0-9.073,6.618-16.478,16.102-16.478c9.483,0,16.238,7.54,16.238,16.611V24.284z
		 M132.135,20.412c-9.143-2.135-11.325-3.735-11.325-7.337v-0.134c0-3.067,2.866-5.536,7.778-5.536
		c4.367,0,8.665,1.668,12.963,4.802l4.504-6.203c-4.844-3.801-10.371-5.871-17.33-5.871c-9.483,0-16.306,5.537-16.306,13.542v0.133
		c0,8.605,5.731,11.541,15.897,13.942c8.87,2.001,10.78,3.802,10.78,7.138v0.132c0,3.537-3.274,5.871-8.461,5.871
		c-5.934,0-10.507-2.202-15.077-6.071l-5.049,5.871c5.73,5.004,12.622,7.472,19.921,7.472c10.029,0,17.057-5.204,17.057-13.944
		v-0.134C147.486,26.349,142.234,22.814,132.135,20.412z M154.91,8.406h15.144v39.09h8.46V8.406h15.147V0.801H154.91V8.406z
		 M224.011,20.412c-9.143-2.135-11.326-3.735-11.326-7.337v-0.134c0-3.067,2.866-5.536,7.779-5.536
		c4.366,0,8.665,1.668,12.963,4.802l4.502-6.203c-4.844-3.801-10.37-5.871-17.33-5.871c-9.483,0-16.305,5.537-16.305,13.542v0.133
		c0,8.605,5.73,11.541,15.897,13.942c8.87,2.001,10.779,3.802,10.779,7.138v0.132c0,3.537-3.275,5.871-8.459,5.871
		c-5.937,0-10.507-2.202-15.077-6.071l-5.049,5.871c5.73,5.004,12.62,7.472,19.92,7.472c10.031,0,17.059-5.204,17.059-13.944v-0.134
		C239.363,26.349,234.109,22.814,224.011,20.412z M286.2,0.801h-38.751v7.605h15.146v39.09h8.461V8.406H286.2V0.801z M306.294,0.469
		L285.28,47.496h8.868l16.032-37.221l16.035,37.221h8.869L314.071,0.469H306.294z"></path>
</g>
</svg>

